<svg id="Warstwa_1" data-name="Warstwa 1" xmlns="http://www.w3.org/2000/svg" xmlns:xlink="http://www.w3.org/1999/xlink" viewBox="0 0 366.72 360.97"><defs><style>.cls-1,.cls-2{font-size:150px;font-family:CenturyGothic, Century Gothic;}.cls-1{fill:#006837;}.cls-3{fill:url(#Gradient_bez_nazwy_18);}.cls-4{fill:url(#Gradient_bez_nazwy_19);}.cls-5{fill:url(#Gradient_bez_nazwy_17);}.cls-6{fill:#fff;}</style><radialGradient id="Gradient_bez_nazwy_18" cx="187.46" cy="343.52" r="17.44" gradientUnits="userSpaceOnUse"><stop offset="0" stop-color="#22b573"/><stop offset="1" stop-color="#39b54a"/></radialGradient><radialGradient id="Gradient_bez_nazwy_19" cx="106.07" cy="343.52" r="17.44" xlink:href="#Gradient_bez_nazwy_18"/><radialGradient id="Gradient_bez_nazwy_17" cx="625.07" cy="514.39" r="100.36" xlink:href="#Gradient_bez_nazwy_18"/></defs><text class="cls-1" transform="translate(0 128.85)">Shop</text><text class="cls-2" transform="translate(0 128.85)">Shop</text><circle class="cls-3" cx="187.46" cy="343.52" r="17.44"/><circle class="cls-4" cx="106.07" cy="343.52" r="17.44"/><path class="cls-5" d="M741.35,433v23.25H714.21L659.07,588.63a11.65,11.65,0,0,1-10.74,7.15h-93a11.65,11.65,0,0,1-10.89-7.53l-34.88-93a11.62,11.62,0,0,1,10.89-15.72h158.9l13.42-32.21A23.2,23.2,0,0,1,714.23,433Z" transform="translate(-455.06 -275.33)"/><path class="cls-6" d="M578.1,497.06v80.88H567.66V497.06Z" transform="translate(-455.06 -275.33)"/><path class="cls-6" d="M611.7,505.94H587.1v-8.88H647v8.88H622.26v72H611.7Z" transform="translate(-455.06 -275.33)"/></svg>