<svg id="Warstwa_2" data-name="Warstwa 2" xmlns="http://www.w3.org/2000/svg" xmlns:xlink="http://www.w3.org/1999/xlink" viewBox="0 0 366.72 360.97"><defs><style>.cls-1{font-size:150px;font-family:CenturyGothic, Century Gothic;}.cls-1,.cls-5{fill:#fff;}.cls-2{fill:url(#Gradient_bez_nazwy_17);}.cls-3{fill:url(#Gradient_bez_nazwy_17-2);}.cls-4{fill:url(#Gradient_bez_nazwy_17-3);}</style><radialGradient id="Gradient_bez_nazwy_17" cx="187.46" cy="343.52" r="17.44" gradientUnits="userSpaceOnUse"><stop offset="0" stop-color="#22b573"/><stop offset="1" stop-color="#39b54a"/></radialGradient><radialGradient id="Gradient_bez_nazwy_17-2" cx="106.07" cy="343.52" r="17.44" xlink:href="#Gradient_bez_nazwy_17"/><radialGradient id="Gradient_bez_nazwy_17-3" cx="1266.85" cy="525.67" r="100.36" xlink:href="#Gradient_bez_nazwy_17"/></defs><text class="cls-1" transform="translate(0 128.85)">Shop</text><text class="cls-1" transform="translate(0 128.85)">Shop</text><circle class="cls-2" cx="187.46" cy="343.52" r="17.44"/><circle class="cls-3" cx="106.07" cy="343.52" r="17.44"/><path class="cls-4" d="M1383.12,444.28v23.25H1356l-55.14,132.38a11.65,11.65,0,0,1-10.74,7.15h-93a11.65,11.65,0,0,1-10.89-7.53l-34.88-93a11.62,11.62,0,0,1,10.89-15.72h158.9l13.42-32.21a23.2,23.2,0,0,1,21.48-14.3Z" transform="translate(-1096.83 -286.61)"/><path class="cls-5" d="M1219.87,508.34v80.88h-10.44V508.34Z" transform="translate(-1096.83 -286.61)"/><path class="cls-5" d="M1253.47,517.22h-24.6v-8.88h59.88v8.88H1264v72h-10.56Z" transform="translate(-1096.83 -286.61)"/></svg>